<svg width="32" height="32" viewBox="0 0 32 32" fill="none" xmlns="http://www.w3.org/2000/svg">
<path d="M17 9C17 8.44772 16.5523 8 16 8C15.4477 8 15 8.44772 15 9V10C15 10.5523 15.4477 11 16 11C16.5523 11 17 10.5523 17 10V9Z" fill="#00395C" fill-opacity="0.8"/>
<path d="M21.6569 11.7574C22.0474 11.3668 22.0474 10.7337 21.6569 10.3431C21.2663 9.95262 20.6332 9.95262 20.2426 10.3431L19.5355 11.0503C19.145 11.4408 19.145 12.0739 19.5355 12.4645C19.9261 12.855 20.5592 12.855 20.9497 12.4645L21.6569 11.7574Z" fill="#00395C" fill-opacity="0.8"/>
<path d="M11.7574 10.3432C11.3669 9.95265 10.7337 9.95265 10.3432 10.3432C9.95265 10.7337 9.95265 11.3669 10.3432 11.7574L11.0502 12.4644C11.4407 12.855 12.0739 12.855 12.4644 12.4644C12.855 12.0739 12.855 11.4407 12.4644 11.0502L11.7574 10.3432Z" fill="#00395C" fill-opacity="0.8"/>
<path d="M9 15C8.44772 15 8 15.4477 8 16C8 16.5523 8.44772 17 9 17H10C10.5523 17 11 16.5523 11 16C11 15.4477 10.5523 15 10 15H9Z" fill="#00395C" fill-opacity="0.8"/>
<path d="M22 15C21.4477 15 21 15.4477 21 16C21 16.5523 21.4477 17 22 17H23C23.5523 17 24 16.5523 24 16C24 15.4477 23.5523 15 23 15H22Z" fill="#00395C" fill-opacity="0.8"/>
<path d="M20.9497 19.5355C20.5592 19.145 19.926 19.145 19.5355 19.5355C19.145 19.926 19.145 20.5592 19.5355 20.9497L20.2427 21.6569C20.6332 22.0474 21.2664 22.0474 21.6569 21.6569C22.0474 21.2664 22.0474 20.6332 21.6569 20.2427L20.9497 19.5355Z" fill="#00395C" fill-opacity="0.8"/>
<path d="M12.4645 19.5355C12.0739 19.145 11.4408 19.145 11.0503 19.5355L10.3431 20.2426C9.95262 20.6332 9.95262 21.2663 10.3431 21.6569C10.7337 22.0474 11.3668 22.0474 11.7574 21.6569L12.4645 20.9497C12.855 20.5592 12.855 19.9261 12.4645 19.5355Z" fill="#00395C" fill-opacity="0.8"/>
<path d="M17 22C17 21.4477 16.5523 21 16 21C15.4477 21 15 21.4477 15 22V23C15 23.5523 15.4477 24 16 24C16.5523 24 17 23.5523 17 23V22Z" fill="#00395C" fill-opacity="0.8"/>
<path fill-rule="evenodd" clip-rule="evenodd" d="M16 12C13.7909 12 12 13.7909 12 16C12 18.2091 13.7909 20 16 20C18.2091 20 20 18.2091 20 16C20 13.7909 18.2091 12 16 12Z" fill="#00395C" fill-opacity="0.8"/>
</svg>
