<svg width="32" height="32" viewBox="0 0 32 32" fill="none" xmlns="http://www.w3.org/2000/svg">
<path fill-rule="evenodd" clip-rule="evenodd" d="M16 23C19.866 23 23 19.866 23 16C23 12.134 19.866 9 16 9C12.134 9 9 12.134 9 16C9 19.866 12.134 23 16 23ZM14.692 14H13C13 12.2 14.2832 11 16.2 11C17.9856 11 19.2 12.1455 19.2 13.7C19.2 14.7094 18.7803 15.4415 17.9 16C17.0696 16.5182 16.74 16.747 16.74 17.393L16.79 18H15.14L15.07 17.3795C14.9888 16.3028 15.4384 15.7451 16.3 15.2C17.1054 14.6818 17.3 14.4258 17.3 13.8C17.3 13.1058 16.7919 12.6151 16 12.6151C15.2081 12.6151 14.7294 13.2598 14.692 14ZM17.1082 20.0472C17.1082 20.7538 16.6774 21.1913 15.9781 21.1913C15.2789 21.1913 14.8418 20.7538 14.8418 20.0472C14.8418 19.3339 15.2789 18.8965 15.9781 18.8965C16.6774 18.8965 17.1082 19.3339 17.1082 20.0472Z" fill="#00395C" fill-opacity="0.8"/>
</svg>
